# xmcd CD database file
#
# Track frame offsets:
#	150
#	16767
#	30776
#	43616
#	56280
#	70344
#	81129
#	100162
#	114133
#	131512
#	144877
#	163739
#	178966
#	193375
#	210201
#	231641
#	248244
#	263581
#	279675
#	294162
#
# Disc length: 4135 seconds
#
# Revision: 2
# Processed by: cddbd v1.5.2PL0 Copyright (c) Steve Scherf et al.
# Submitted via: jetAudio 5
#
DISCID=10102514
DTITLE=Mark Chesnutt - Top Marks (His First Twenty Hits)
DYEAR=2000
DGENRE=Country
TTITLE0=Too Cold At Home
TTITLE1=Brother Jukebox
TTITLE2=Blame It On Texas (Single Remix)
TTITLE3=Your Love Is A Miracle
TTITLE4=Broken Promise Land
TTITLE5=Old Flames Have New Names
TTITLE6=I'll Think Of Something
TTITLE7=Bubba Shot The Jukebox
TTITLE8=Old Country
TTITLE9=It Sure Is Monday
TTITLE10=Almost Goodbye
TTITLE11=I Just Wanted You To Know
TTITLE12=Woman, Sensuous Woman
TTITLE13=She Dreams
TTITLE14=Goin' Through The Big D (Extended Version)
TTITLE15=Gonna Get A Life (Single Version)
TTITLE16=Down In Tennessee
TTITLE17=Trouble
TTITLE18=It Wouldn't Hurt To Have Wings
TTITLE19=Wrong Place, Wrong Time
EXTD=
EXTT0=
EXTT1=
EXTT2=
EXTT3=
EXTT4=
EXTT5=
EXTT6=
EXTT7=
EXTT8=
EXTT9=
EXTT10=
EXTT11=
EXTT12=
EXTT13=
EXTT14=
EXTT15=
EXTT16=
EXTT17=
EXTT18=
EXTT19=
PLAYORDER=
